<svg width="35" height="37" viewBox="0 0 35 37" fill="none" xmlns="http://www.w3.org/2000/svg">
<path d="M24.3367 12.7694C23.9582 12.3908 23.5088 12.0904 23.0142 11.8854C22.5195 11.6805 21.9894 11.575 21.454 11.575C20.9185 11.575 20.3884 11.6805 19.8937 11.8854C19.3991 12.0904 18.9497 12.3908 18.5712 12.7694L17.7857 13.555L17.0001 12.7694C16.2356 12.0049 15.1986 11.5754 14.1174 11.5754C13.0361 11.5754 11.9992 12.0049 11.2346 12.7694C10.4701 13.534 10.0405 14.571 10.0405 15.6522C10.0405 16.7334 10.4701 17.7704 11.2346 18.535L12.0201 19.3205L17.7857 25.086L23.5512 19.3205L24.3367 18.535C24.7154 18.1565 25.0158 17.7071 25.2208 17.2124C25.4257 16.7178 25.5312 16.1876 25.5312 15.6522C25.5312 15.1168 25.4257 14.5866 25.2208 14.092C25.0158 13.5974 24.7154 13.1479 24.3367 12.7694V12.7694Z" fill="#F72381" stroke="#F72381" stroke-width="1.48214" stroke-linecap="round" stroke-linejoin="round"/>
<circle cx="21.354" cy="2.36605" r="1.11161" transform="rotate(50 21.354 2.36605)" fill="#E28FBF"/>
<circle cx="17.664" cy="5.46233" r="0.74107" transform="rotate(50 17.664 5.46233)" fill="#884C83"/>
<circle cx="7.04007" cy="5.27724" r="1.11161" fill="#E28FBF"/>
<circle cx="7.04014" cy="10.0942" r="0.74107" fill="#884C83"/>
<circle cx="32.7502" cy="9.47573" r="1.11161" transform="rotate(112 32.7502 9.47573)" fill="#E9B857"/>
<circle cx="28.2841" cy="7.67126" r="0.74107" transform="rotate(112 28.2841 7.67126)" fill="#D5C498"/>
<circle cx="33.5993" cy="21.9787" r="1.11161" transform="rotate(162 33.5993 21.9787)" fill="#E9B857"/>
<circle cx="32.1109" cy="17.3975" r="0.74107" transform="rotate(162 32.1109 17.3975)" fill="#D5C498"/>
<circle cx="23.5732" cy="34.4618" r="1.11161" transform="rotate(-138 23.5732 34.4618)" fill="#4F9ACD"/>
<circle cx="26.7965" cy="30.8821" r="0.74107" transform="rotate(-138 26.7965 30.8821)" fill="#4B79AE"/>
<circle cx="9.79331" cy="32.4609" r="1.11161" transform="rotate(-104 9.79331 32.4609)" fill="#77AC5E"/>
<circle cx="14.4673" cy="31.2956" r="0.74107" transform="rotate(-104 14.4673 31.2956)" fill="#7B8B79"/>
<circle cx="1.57181" cy="17.5323" r="1.11161" transform="rotate(-44 1.57181 17.5323)" fill="#77AC5E"/>
<circle cx="4.91774" cy="20.9974" r="0.74107" transform="rotate(-44 4.91774 20.9974)" fill="#7B8B79"/>
</svg>
